<svg id="SvgjsSvg1001" width="288" height="288" xmlns="http://www.w3.org/2000/svg" version="1.1" xmlns:xlink="http://www.w3.org/1999/xlink" xmlns:svgjs="http://svgjs.com/svgjs"><defs id="SvgjsDefs1002"></defs><g id="SvgjsG1008"><svg xmlns="http://www.w3.org/2000/svg" enable-background="new 0 0 490 490" viewBox="0 0 490 490" width="288" height="288"><path d="M69.089,490h351.821c38.087,0,69.086-30.999,69.086-69.086V69.086C489.996,30.999,458.997,0,420.911,0H69.089
	C30.995,0,0.004,30.999,0.004,69.086v351.829C0.004,459.001,30.995,490,69.089,490z M336.797,348.045h-183.75V317.42h183.75V348.045
	z M324.287,132.641c23.55,0,42.642,19.091,42.642,42.642c0,23.55-19.092,42.642-42.642,42.642
	c-23.551,0-42.642-19.092-42.642-42.642C281.645,151.732,300.736,132.641,324.287,132.641z M123.072,145.484l16.673-25.69
	l85.497,55.493l-85.497,55.478l-16.673-25.69l45.915-29.788L123.072,145.484z" fill="#b026ff" class="color000 svgShape"></path></svg></g></svg>